Coordinates
version=1
nRows=8
nColumns=40
inDegrees=yes

Units are S.I. units (second, meters, Newtons, ...)
Angles are in degrees.

endheader
time	pelvis_tilt	pelvis_list	pelvis_rotation	pelvis_tx	pelvis_ty	pelvis_tz	hip_flexion_r	hip_adduction_r	hip_rotation_r	knee_angle_r	knee_angle_r_beta	ankle_angle_r	subtalar_angle_r	mtp_angle_r	hip_flexion_l	hip_adduction_l	hip_rotation_l	knee_angle_l	knee_angle_l_beta	ankle_angle_l	subtalar_angle_l	mtp_angle_l	lumbar_extension	lumbar_bending	lumbar_rotation	arm_flex_r	arm_add_r	arm_rot_r	elbow_flex_r	pro_sup_r	wrist_flex_r	wrist_dev_r	arm_flex_l	arm_add_l	arm_rot_l	elbow_flex_l	pro_sup_l	wrist_flex_l	wrist_dev_l
     36.44000000	     -5.37471918	     -2.51832824	     -0.66943481	      1.00496387	      0.92523731	      0.42993333	     11.65158621	     -8.18890014	     -6.32998718	     38.92041394	     38.92041394	      8.19626927	     -3.04662949	    -19.59657312	     20.58734151	     -3.01742748	     -6.67310047	     26.20091856	     26.20091856	     13.51833019	    -16.01656453	      7.45098531	     -7.70002148	      6.22686044	      3.66137982	     24.36861473	    -13.13449871	     -0.61563110	     37.38013760	     45.82322718	      0.00000000	      0.00000000	      9.75228221	    -13.01198307	     27.87356959	     31.46577072	     44.42489720	      0.00000000	      0.00000000
     36.46178571	     -5.00022146	     -2.41223649	     -1.38931292	      1.00561859	      0.92346017	      0.42616537	     13.81595210	     -8.59531813	     -4.53267089	     43.48934014	     43.48934014	      6.69727081	     -4.94201739	    -19.82222110	     20.36088625	     -2.80862627	     -7.01529753	     27.38149598	     27.38149598	     14.28912702	    -16.72220072	      7.14152586	     -8.02993122	      6.30446748	      3.24544121	     20.74492619	    -13.21575404	     -0.36768272	     35.45118303	     45.85981103	      0.00000000	      0.00000000	     11.80863918	    -13.50408460	     27.42244020	     32.48257476	     44.51356877	      0.00000000	      0.00000000
     36.48357143	     -4.57438259	     -2.55483987	     -2.08613324	      1.00626240	      0.92181700	      0.42269691	     15.76226413	     -8.37665406	     -2.51896189	     47.68679004	     47.68679004	      4.92814663	     -7.72924041	    -19.38825009	     20.11665126	     -2.89367975	     -7.32826282	     28.67426745	     28.67426745	     15.30830719	    -17.21989920	      7.25712456	     -8.41617420	      6.63306896	      3.27710733	     16.90202769	    -13.58489140	     -0.04919826	     32.74486348	     45.92315482	      0.00000000	      0.00000000	     14.08059746	    -14.01166570	     26.71564742	     34.16802447	     44.64036118	      0.00000000	      0.00000000
     36.50535714	     -4.25092204	     -2.57158515	     -2.79935006	      1.00671525	      0.92022496	      0.41939546	     17.74555701	     -8.26980116	     -0.79172905	     51.62626420	     51.62626420	      3.25100245	     -9.71510875	    -18.43240912	     19.86366763	     -2.82843404	     -7.68938229	     29.72607110	     29.72607110	     16.28230148	    -17.61152808	      7.45173532	     -8.74136644	      6.80352842	      3.07564267	     13.15733328	    -13.82654610	      0.15249038	     30.23763736	     45.98663633	      0.00000000	      0.00000000	     16.25617328	    -14.68177186	     25.93760488	     35.74848303	     44.76990324	      0.00000000	      0.00000000
     36.52714286	     -3.91859529	     -2.62219812	     -3.47660779	      1.00703405	      0.91907615	      0.41652087	     19.59575852	     -8.03122407	      0.65709690	     55.32061108	     55.32061108	      2.89210162	    -10.68718305	    -14.04553964	     19.58315701	     -2.79740545	     -8.02412221	     30.75444527	     30.75444527	     17.85494875	    -17.73443233	      9.52140022	     -9.10049027	      7.00094157	      2.34686502	     10.29687651	    -13.72701476	     -0.06310246	     26.54705548	     46.15676261	      0.00000000	      0.00000000	     17.73650806	    -15.73893906	     23.73349793	     38.70405186	     45.07173047	      0.00000000	      0.00000000
     36.54892857	     -3.62265147	     -2.59947589	     -4.10399421	      1.00719602	      0.91845320	      0.41404529	     21.12626980	     -7.90032463	      1.71742431	     58.06386667	     58.06386667	      1.57113447	    -12.11813790	    -13.23167629	     19.07556580	     -2.67609594	     -8.42457005	     31.18591772	     31.18591772	     18.37716604	    -18.03234846	      9.40868086	     -9.40082172	      7.08791969	      1.65309699	      6.81893425	    -13.83710532	     -0.06155869	     24.98454010	     46.19439400	      0.00000000	      0.00000000	     19.96072726	    -16.79035566	     22.98145992	     39.71311054	     45.18403719	      0.00000000	      0.00000000
     36.57071429	     -3.54064781	     -2.87356766	     -4.83437353	      1.00701018	      0.91838944	      0.41254406	     22.84595276	     -7.13920653	      2.75765077	     60.60949376	     60.60949376	      2.56549099	    -12.70839810	     -5.97455691	     18.67445185	     -2.95140920	     -8.82314298	     31.41852536	     31.41852536	     19.21865823	    -18.06883374	     10.34626386	     -9.64840730	      7.45775797	      1.78514947	      3.19013444	    -14.07202704	     -1.65173792	     23.27006682	     46.42283976	      0.00000000	      0.00000000	     21.42418173	    -17.17360214	     19.24974420	     43.16626707	     45.62818733	      0.00000000	      0.00000000
     36.59250000	     -3.52467677	     -3.00839481	     -5.51000324	      1.00668052	      0.91900492	      0.41155458	     24.23729310	     -6.63994180	      3.35718894	     62.02513243	     62.02513243	      2.45275698	    -13.87603888	     -3.40603903	     18.09264254	     -3.07500999	     -9.31254265	     31.09699884	     31.09699884	     19.49025364	    -18.13165804	     10.43294364	     -9.77842215	      7.61939387	      1.57241945	     -0.41278122	    -14.20245622	     -2.76314526	     22.62368759	     46.54419369	      0.00000000	      0.00000000	     23.03617624	    -18.05985351	     16.99881893	     46.05836319	     45.88846933	      0.00000000	      0.00000000
